# xmcd
#
# Track frame offsets: 
#        183
#        12845
#        25145
#        38185
#        51413
#        64155
#        77900
#        90903
#        104045
#        117958
#        129773
#        144085
#        158063
#        170738
#        184583
#        198870
#        212750
#        225805
#        239840
#        253738
#        267335
#        281113
#        294265
#
# Disc length: 4089 seconds
#
# Revision: 1
# Processed by: cddbd v1.5.2PL0 Copyright (c) Steve Scherf et al.
# Submitted via: ExactAudioCopy v0.99pb5
#
DISCID=410ff717
DTITLE=Various Artist - Alabama Blues
DYEAR=1929
DGENRE=Blues
TTITLE0=Touch Me Light Mama_George 'Bullet' Williams
TTITLE1=Frisco Leaving Birmingham_George 'Bullet' Williams
TTITLE2=Frisco Leaving Birmingham_George 'Bullet' Williams
TTITLE3=The Escaped Convict_George 'Bullet' Williams
TTITLE4=Middlin` Blues_George 'Bullet' Williams
TTITLE5=Police And High Sheriff Come Ridin´ Down_Ollis Martin
TTITLE6=Ain`t Gonna Lay My 'Ligion Down_Frank Palmes
TTITLE7=Troubled `Bout My Soul_Frank Palmes
TTITLE8=My Jelly Blues_Bertha Ross
TTITLE9=Mill Log Blues_Jaybird Coleman
TTITLE10=Ah`m Sick And Tired Of Tellin` You(To Wiggle That Thing)_Jayb
TTITLE10=ird Coleman
TTITLE11=Man Trouble Blues_Jaybird Coleman
TTITLE12=Trunk Busted- Suitcase Full Of Holes_Jaybird Coleman
TTITLE13=I`m Gonna Cross The River Of Jordan- Some O`These Days_Jaybir
TTITLE13=d Coleman
TTITLE14=No More Good Water(`Cause The Pond Is Dry)_Jaybird Coleman
TTITLE15=Mistreatin` Mama_Jaybird Coleman
TTITLE16=Save Your Money - Let These Women Go_Jaybird Coleman
TTITLE17=Coffee Grinder Blues_Jaybird Coleman
TTITLE18=Man Trouble Blues_Jaybird Coleman
TTITLE19=Keep Your Windows Pinned_Clifford Gibson
TTITLE20=Don`t Put That Thing On Me_Clifford Gibson
TTITLE21=Tired Of Being Mistreated (Pt.2)_Clifford Gibson
TTITLE22=Whiskey Moan Blues_Clifford Gibson
EXTD=YEAR: 1929
EXTT0=
EXTT1=
EXTT2=
EXTT3=
EXTT4=
EXTT5=
EXTT6=
EXTT7=
EXTT8=
EXTT9=
EXTT10=
EXTT11=
EXTT12=
EXTT13=
EXTT14=
EXTT15=
EXTT16=
EXTT17=
EXTT18=
EXTT19=
EXTT20=
EXTT21=
EXTT22=
PLAYORDER=
